<?xml version="1.0" encoding="UTF-8"?>
<svg xmlns="http://www.w3.org/2000/svg" xmlns:xlink="http://www.w3.org/1999/xlink" viewBox="0 0 32 32" width="32px" height="32px">
<g id="surface1941024">
<rect x="0" y="0" width="32" height="32" style="fill:rgb(40.000001%,40.000001%,40.000001%);fill-opacity:1;stroke:none;"/>
<path style=" stroke:none;fill-rule:nonzero;fill:rgb(100%,100%,100%);fill-opacity:1;" d="M 10.351562 4 C 10.117188 4 10 4.117188 10 4.351562 L 10 27.644531 C 10 27.878906 10.117188 27.996094 10.351562 27.996094 L 12.648438 27.996094 C 12.882812 27.996094 13.003906 27.878906 13.003906 27.644531 L 13.003906 22.808594 L 14.8125 21.085938 L 20.046875 27.75 C 20.191406 27.914062 20.355469 28 20.546875 28 L 23.71875 28 C 23.882812 28 23.976562 27.953125 24 27.855469 L 23.933594 27.496094 L 17.023438 18.910156 L 23.652344 12.496094 C 23.773438 12.371094 23.730469 12 23.398438 12 L 20.117188 12 C 19.953125 12 19.785156 12.085938 19.621094 12.253906 L 13 18.976562 L 13 4.351562 C 13 4.117188 12.882812 4 12.648438 4 Z M 10.351562 4 "/>
</g>
</svg>
