<?xml version="1.0" encoding="UTF-8"?>
<svg xmlns="http://www.w3.org/2000/svg" xmlns:xlink="http://www.w3.org/1999/xlink" viewBox="0 0 32 32" width="32px" height="32px">
<g id="surface169487">
<rect x="0" y="0" width="32" height="32" style="fill:rgb(40.000001%,40.000001%,40.000001%);fill-opacity:1;stroke:none;"/>
<path style=" stroke:none;fill-rule:evenodd;fill:rgb(100%,100%,100%);fill-opacity:1;" d="M 16 6.398438 C 10.730469 6.398438 6.460938 10.667969 6.460938 15.9375 C 6.460938 20.152344 9.191406 23.730469 12.984375 24.992188 C 13.464844 25.078125 13.636719 24.785156 13.636719 24.53125 C 13.636719 24.304688 13.628906 23.707031 13.625 22.910156 C 10.96875 23.484375 10.410156 21.632812 10.410156 21.632812 C 9.976562 20.527344 9.351562 20.234375 9.351562 20.234375 C 8.484375 19.644531 9.417969 19.65625 9.417969 19.65625 C 10.375 19.726562 10.875 20.636719 10.875 20.636719 C 11.726562 22.097656 13.109375 21.675781 13.652344 21.433594 C 13.738281 20.816406 13.988281 20.394531 14.257812 20.15625 C 12.140625 19.917969 9.914062 19.097656 9.914062 15.441406 C 9.914062 14.398438 10.285156 13.546875 10.894531 12.878906 C 10.796875 12.640625 10.46875 11.667969 10.988281 10.355469 C 10.988281 10.355469 11.789062 10.101562 13.613281 11.335938 C 14.371094 11.125 15.191406 11.015625 16 11.015625 C 16.808594 11.015625 17.628906 11.125 18.386719 11.335938 C 20.210938 10.101562 21.007812 10.355469 21.007812 10.355469 C 21.53125 11.667969 21.203125 12.640625 21.105469 12.878906 C 21.714844 13.546875 22.082031 14.398438 22.082031 15.441406 C 22.082031 19.105469 19.855469 19.910156 17.730469 20.148438 C 18.070312 20.441406 18.375 21.027344 18.375 21.914062 C 18.375 23.191406 18.367188 24.21875 18.367188 24.53125 C 18.367188 24.785156 18.535156 25.085938 19.019531 24.992188 C 22.808594 23.726562 25.539062 20.152344 25.539062 15.9375 C 25.539062 10.667969 21.269531 6.398438 16 6.398438 Z M 16 6.398438 "/>
</g>
</svg>
